<svg width="17" height="16" viewBox="0 0 17 16" fill="none" xmlns="http://www.w3.org/2000/svg">
<g clip-path="url(#clip0_99_1920)">
<path d="M12.6638 12.9852C11.4694 13.9335 9.95807 14.5 8.31445 14.5C4.44846 14.5 1.31445 11.366 1.31445 7.5C1.31445 3.63401 4.44846 0.5 8.31445 0.5C12.1804 0.5 15.3145 3.63401 15.3145 7.5C15.3145 9.18201 14.7212 10.7255 13.7325 11.9325L15.9521 14.231C16.144 14.4296 16.1384 14.7462 15.9398 14.938L15.5801 15.2853C15.3815 15.4771 15.0649 15.4716 14.8731 15.273L12.6638 12.9852ZM13.8145 7.5C13.8145 4.46243 11.352 2 8.31445 2C5.27689 2 2.81445 4.46243 2.81445 7.5C2.81445 10.5376 5.27689 13 8.31445 13C11.352 13 13.8145 10.5376 13.8145 7.5Z" fill="#566E8C"/>
</g>
<defs>
<clipPath id="clip0_99_1920">
<rect width="16" height="16" fill="white" transform="translate(0.814453)"/>
</clipPath>
</defs>
</svg>
