<svg width="20" height="20" viewBox="0 0 20 20" fill="none" xmlns="http://www.w3.org/2000/svg">
<path fill-rule="evenodd" clip-rule="evenodd" d="M4.99967 2.91634V2.08301H6.66634V2.91634H13.333V2.08301H14.9997V2.91634H16.6663C17.3567 2.91634 17.9163 3.47598 17.9163 4.16634V16.6663C17.9163 17.3567 17.3567 17.9163 16.6663 17.9163H3.33301C2.64265 17.9163 2.08301 17.3567 2.08301 16.6663V4.16634C2.08301 3.47599 2.64265 2.91634 3.33301 2.91634H4.99967ZM4.99967 4.58301H3.74967V8.33301H16.2497V4.58301H14.9997V5.41634H13.333V4.58301H6.66634V5.41634H4.99967V4.58301ZM16.2497 9.99967H3.74967V16.2497H16.2497V9.99967Z" fill="#00000F"/>
</svg>
