<svg width="20" height="20" viewBox="0 0 20 20" fill="none" xmlns="http://www.w3.org/2000/svg">
<mask id="path-1-outside-1_62_5759" maskUnits="userSpaceOnUse" x="0.25" y="0.25" width="19" height="19" fill="black">
<rect fill="white" x="0.25" y="0.25" width="19" height="19"/>
<path fill-rule="evenodd" clip-rule="evenodd" d="M10 1.25C9.65482 1.25 9.375 1.52982 9.375 1.875C9.375 2.22018 9.65482 2.5 10 2.5C14.1421 2.5 17.5 5.85786 17.5 10C17.5 14.1421 14.1421 17.5 10 17.5C5.85786 17.5 2.5 14.1421 2.5 10C2.5 7.65631 3.57486 5.56304 5.26018 4.18718L5.09062 5.23756C5.03561 5.57833 5.26727 5.89917 5.60803 5.95418C5.9488 6.00919 6.26964 5.77753 6.32465 5.43677L6.72006 2.98728C6.74736 2.8488 6.72814 2.70034 6.65512 2.56683C6.54915 2.37307 6.35551 2.25775 6.15046 2.24319L3.7376 1.85369C3.39683 1.79868 3.07599 2.03034 3.02099 2.3711C2.96598 2.71187 3.19763 3.03271 3.53839 3.08772L4.45029 3.23492C2.49709 4.83912 1.25 7.27362 1.25 10C1.25 14.8325 5.16751 18.75 10 18.75C14.8325 18.75 18.75 14.8325 18.75 10C18.75 5.16751 14.8325 1.25 10 1.25Z"/>
</mask>
<path fill-rule="evenodd" clip-rule="evenodd" d="M10 1.25C9.65482 1.25 9.375 1.52982 9.375 1.875C9.375 2.22018 9.65482 2.5 10 2.5C14.1421 2.5 17.5 5.85786 17.5 10C17.5 14.1421 14.1421 17.5 10 17.5C5.85786 17.5 2.5 14.1421 2.5 10C2.5 7.65631 3.57486 5.56304 5.26018 4.18718L5.09062 5.23756C5.03561 5.57833 5.26727 5.89917 5.60803 5.95418C5.9488 6.00919 6.26964 5.77753 6.32465 5.43677L6.72006 2.98728C6.74736 2.8488 6.72814 2.70034 6.65512 2.56683C6.54915 2.37307 6.35551 2.25775 6.15046 2.24319L3.7376 1.85369C3.39683 1.79868 3.07599 2.03034 3.02099 2.3711C2.96598 2.71187 3.19763 3.03271 3.53839 3.08772L4.45029 3.23492C2.49709 4.83912 1.25 7.27362 1.25 10C1.25 14.8325 5.16751 18.75 10 18.75C14.8325 18.75 18.75 14.8325 18.75 10C18.75 5.16751 14.8325 1.25 10 1.25Z" fill="#00000F"/>
<path d="M5.26018 4.18718L5.35891 4.20312C5.36552 4.16212 5.34612 4.1213 5.31014 4.10055C5.27417 4.07981 5.22911 4.08345 5.19694 4.10972L5.26018 4.18718ZM5.09062 5.23756L5.18935 5.2535L5.09062 5.23756ZM5.60803 5.95418L5.5921 6.0529L5.60803 5.95418ZM6.32465 5.43677L6.22593 5.42083L6.32465 5.43677ZM6.72006 2.98728L6.62189 2.96793L6.62134 2.97134L6.72006 2.98728ZM6.65512 2.56683L6.56739 2.61482V2.61482L6.65512 2.56683ZM6.15046 2.24319L6.13446 2.34231L6.14338 2.34294L6.15046 2.24319ZM3.7376 1.85369L3.75354 1.75497L3.7376 1.85369ZM3.02099 2.3711L2.92226 2.35517V2.35517L3.02099 2.3711ZM3.53839 3.08772L3.52246 3.18644L3.53839 3.08772ZM4.45029 3.23492L4.51376 3.3122C4.54414 3.28725 4.55708 3.24681 4.54683 3.20885C4.53658 3.17089 4.50504 3.14247 4.46623 3.1362L4.45029 3.23492ZM9.475 1.875C9.475 1.58505 9.71005 1.35 10 1.35V1.15C9.59959 1.15 9.275 1.47459 9.275 1.875H9.475ZM10 2.4C9.71005 2.4 9.475 2.16495 9.475 1.875H9.275C9.275 2.27541 9.59959 2.6 10 2.6V2.4ZM17.6 10C17.6 5.80264 14.1974 2.4 10 2.4V2.6C14.0869 2.6 17.4 5.91309 17.4 10H17.6ZM10 17.6C14.1974 17.6 17.6 14.1974 17.6 10H17.4C17.4 14.0869 14.0869 17.4 10 17.4V17.6ZM2.4 10C2.4 14.1974 5.80264 17.6 10 17.6V17.4C5.91309 17.4 2.6 14.0869 2.6 10H2.4ZM5.19694 4.10972C3.48934 5.50376 2.4 7.62502 2.4 10H2.6C2.6 7.68759 3.66037 5.62232 5.32342 4.26464L5.19694 4.10972ZM5.16146 4.17124L4.9919 5.22163L5.18935 5.2535L5.35891 4.20312L5.16146 4.17124ZM4.9919 5.22163C4.92809 5.61692 5.19681 5.98909 5.5921 6.0529L5.62397 5.85546C5.33773 5.80925 5.14314 5.53974 5.18935 5.2535L4.9919 5.22163ZM5.5921 6.0529C5.98739 6.11671 6.35956 5.84799 6.42337 5.4527L6.22593 5.42083C6.17972 5.70708 5.91021 5.90166 5.62397 5.85546L5.5921 6.0529ZM6.42337 5.4527L6.81879 3.00321L6.62134 2.97134L6.22593 5.42083L6.42337 5.4527ZM6.56739 2.61482C6.62877 2.72704 6.64489 2.85158 6.62195 2.96794L6.81818 3.00662C6.84983 2.84603 6.82752 2.67364 6.74286 2.51885L6.56739 2.61482ZM6.14338 2.34294C6.31593 2.35519 6.47842 2.45215 6.56739 2.61482L6.74286 2.51885C6.61988 2.29399 6.3951 2.16031 6.15754 2.14344L6.14338 2.34294ZM6.16639 2.14447L3.75354 1.75497L3.72166 1.95241L6.13452 2.34192L6.16639 2.14447ZM3.75354 1.75497C3.35825 1.69116 2.98607 1.95988 2.92226 2.35517L3.11971 2.38704C3.16591 2.10079 3.43542 1.90621 3.72166 1.95241L3.75354 1.75497ZM2.92226 2.35517C2.85845 2.75046 3.12717 3.12263 3.52246 3.18644L3.55433 2.989C3.26809 2.94279 3.0735 2.67328 3.11971 2.38704L2.92226 2.35517ZM3.52246 3.18644L4.43436 3.33364L4.46623 3.1362L3.55433 2.989L3.52246 3.18644ZM1.35 10C1.35 7.30482 2.58268 4.89823 4.51376 3.3122L4.38682 3.15765C2.41149 4.78002 1.15 7.24242 1.15 10H1.35ZM10 18.65C5.22274 18.65 1.35 14.7773 1.35 10H1.15C1.15 14.8877 5.11228 18.85 10 18.85V18.65ZM18.65 10C18.65 14.7773 14.7773 18.65 10 18.65V18.85C14.8877 18.85 18.85 14.8877 18.85 10H18.65ZM10 1.35C14.7773 1.35 18.65 5.22274 18.65 10H18.85C18.85 5.11228 14.8877 1.15 10 1.15V1.35Z" fill="#00000F" mask="url(#path-1-outside-1_62_5759)"/>
<mask id="path-3-outside-2_62_5759" maskUnits="userSpaceOnUse" x="4.9375" y="5.25" width="10" height="10" fill="black">
<rect fill="white" x="4.9375" y="5.25" width="10" height="10"/>
<path fill-rule="evenodd" clip-rule="evenodd" d="M7.65625 7.5C7.91513 7.5 8.125 7.70987 8.125 7.96875C8.125 8.22763 7.91513 8.4375 7.65625 8.4375C7.39737 8.4375 7.1875 8.22763 7.1875 7.96875C7.1875 7.70987 7.39737 7.5 7.65625 7.5ZM9.375 7.96875C9.375 8.91799 8.60549 9.6875 7.65625 9.6875C6.70701 9.6875 5.9375 8.91799 5.9375 7.96875C5.9375 7.01951 6.70701 6.25 7.65625 6.25C8.60549 6.25 9.375 7.01951 9.375 7.96875ZM13.0936 7.21893C13.3377 7.46301 13.3377 7.85873 13.0936 8.10281L7.79031 13.4061C7.54624 13.6502 7.15051 13.6502 6.90643 13.4061C6.66235 13.162 6.66235 12.7663 6.90643 12.5222L12.2097 7.21893C12.4538 6.97485 12.8495 6.97485 13.0936 7.21893ZM11.875 12.6563C11.875 12.9152 12.0849 13.125 12.3438 13.125C12.6027 13.125 12.8125 12.9152 12.8125 12.6563C12.8125 12.3974 12.6027 12.1875 12.3438 12.1875C12.0849 12.1875 11.875 12.3974 11.875 12.6563ZM12.3438 10.9375C11.3945 10.9375 10.625 11.707 10.625 12.6563C10.625 13.6055 11.3945 14.375 12.3438 14.375C13.293 14.375 14.0625 13.6055 14.0625 12.6563C14.0625 11.707 13.293 10.9375 12.3438 10.9375Z"/>
</mask>
<path fill-rule="evenodd" clip-rule="evenodd" d="M7.65625 7.5C7.91513 7.5 8.125 7.70987 8.125 7.96875C8.125 8.22763 7.91513 8.4375 7.65625 8.4375C7.39737 8.4375 7.1875 8.22763 7.1875 7.96875C7.1875 7.70987 7.39737 7.5 7.65625 7.5ZM9.375 7.96875C9.375 8.91799 8.60549 9.6875 7.65625 9.6875C6.70701 9.6875 5.9375 8.91799 5.9375 7.96875C5.9375 7.01951 6.70701 6.25 7.65625 6.25C8.60549 6.25 9.375 7.01951 9.375 7.96875ZM13.0936 7.21893C13.3377 7.46301 13.3377 7.85873 13.0936 8.10281L7.79031 13.4061C7.54624 13.6502 7.15051 13.6502 6.90643 13.4061C6.66235 13.162 6.66235 12.7663 6.90643 12.5222L12.2097 7.21893C12.4538 6.97485 12.8495 6.97485 13.0936 7.21893ZM11.875 12.6563C11.875 12.9152 12.0849 13.125 12.3438 13.125C12.6027 13.125 12.8125 12.9152 12.8125 12.6563C12.8125 12.3974 12.6027 12.1875 12.3438 12.1875C12.0849 12.1875 11.875 12.3974 11.875 12.6563ZM12.3438 10.9375C11.3945 10.9375 10.625 11.707 10.625 12.6563C10.625 13.6055 11.3945 14.375 12.3438 14.375C13.293 14.375 14.0625 13.6055 14.0625 12.6563C14.0625 11.707 13.293 10.9375 12.3438 10.9375Z" fill="#00000F"/>
<path d="M8.125 7.96875L8.025 7.96875V7.96875H8.125ZM7.65625 8.4375L7.65625 8.5375H7.65625V8.4375ZM7.65625 9.6875V9.7875V9.6875ZM9.375 7.96875H9.275H9.375ZM13.0936 8.10281L13.0229 8.0321L13.0936 8.10281ZM7.79031 13.4061L7.86102 13.4768L7.79031 13.4061ZM6.90643 13.4061L6.97714 13.3354L6.90643 13.4061ZM6.90643 12.5222L6.97714 12.5929L6.90643 12.5222ZM12.2097 7.21893L12.139 7.14822L12.2097 7.21893ZM8.225 7.96875C8.225 7.65464 7.97036 7.4 7.65625 7.4V7.6C7.85991 7.6 8.025 7.76509 8.025 7.96875L8.225 7.96875ZM7.65625 8.5375C7.97036 8.5375 8.225 8.28286 8.225 7.96875H8.025C8.025 8.1724 7.85991 8.3375 7.65625 8.3375V8.5375ZM7.0875 7.96875C7.0875 8.28286 7.34214 8.5375 7.65625 8.5375L7.65625 8.3375C7.4526 8.3375 7.2875 8.1724 7.2875 7.96875H7.0875ZM7.65625 7.4C7.34214 7.4 7.0875 7.65464 7.0875 7.96875H7.2875C7.2875 7.76509 7.4526 7.6 7.65625 7.6V7.4ZM7.65625 9.7875C8.66072 9.7875 9.475 8.97322 9.475 7.96875H9.275C9.275 8.86276 8.55026 9.5875 7.65625 9.5875V9.7875ZM5.8375 7.96875C5.8375 8.97322 6.65178 9.7875 7.65625 9.7875V9.5875C6.76224 9.5875 6.0375 8.86276 6.0375 7.96875H5.8375ZM7.65625 6.15C6.65178 6.15 5.8375 6.96428 5.8375 7.96875H6.0375C6.0375 7.07474 6.76224 6.35 7.65625 6.35V6.15ZM9.475 7.96875C9.475 6.96428 8.66072 6.15 7.65625 6.15V6.35C8.55026 6.35 9.275 7.07474 9.275 7.96875H9.475ZM13.1643 8.17352C13.4475 7.89039 13.4475 7.43135 13.1643 7.14822L13.0229 7.28964C13.2279 7.49466 13.2279 7.82708 13.0229 8.0321L13.1643 8.17352ZM7.86102 13.4768L13.1643 8.17352L13.0229 8.0321L7.7196 13.3354L7.86102 13.4768ZM6.83572 13.4768C7.11885 13.76 7.57789 13.76 7.86102 13.4768L7.7196 13.3354C7.51458 13.5404 7.18217 13.5404 6.97714 13.3354L6.83572 13.4768ZM6.83572 12.4515C6.55259 12.7346 6.55259 13.1937 6.83572 13.4768L6.97714 13.3354C6.77212 13.1304 6.77212 12.798 6.97714 12.5929L6.83572 12.4515ZM12.139 7.14822L6.83572 12.4515L6.97714 12.5929L12.2804 7.28964L12.139 7.14822ZM13.1643 7.14822C12.8812 6.86509 12.4222 6.86509 12.139 7.14822L12.2804 7.28964C12.4855 7.08461 12.8179 7.08461 13.0229 7.28964L13.1643 7.14822ZM12.3438 13.025C12.1401 13.025 11.975 12.8599 11.975 12.6563H11.775C11.775 12.9704 12.0297 13.225 12.3438 13.225V13.025ZM12.7125 12.6563C12.7125 12.8599 12.5474 13.025 12.3438 13.025V13.225C12.6579 13.225 12.9125 12.9704 12.9125 12.6563H12.7125ZM12.3438 12.2875C12.5474 12.2875 12.7125 12.4526 12.7125 12.6563H12.9125C12.9125 12.3422 12.6579 12.0875 12.3438 12.0875V12.2875ZM11.975 12.6563C11.975 12.4526 12.1401 12.2875 12.3438 12.2875V12.0875C12.0297 12.0875 11.775 12.3422 11.775 12.6563H11.975ZM10.725 12.6563C10.725 11.7623 11.4498 11.0375 12.3438 11.0375V10.8375C11.3393 10.8375 10.525 11.6518 10.525 12.6563H10.725ZM12.3438 14.275C11.4498 14.275 10.725 13.5503 10.725 12.6563H10.525C10.525 13.6607 11.3393 14.475 12.3438 14.475V14.275ZM13.9625 12.6563C13.9625 13.5503 13.2378 14.275 12.3438 14.275V14.475C13.3483 14.475 14.1625 13.6607 14.1625 12.6563H13.9625ZM12.3438 11.0375C13.2378 11.0375 13.9625 11.7623 13.9625 12.6563H14.1625C14.1625 11.6518 13.3483 10.8375 12.3438 10.8375V11.0375Z" fill="#00000F" mask="url(#path-3-outside-2_62_5759)"/>
</svg>
