<svg width="20" height="20" viewBox="0 0 20 20" fill="none" xmlns="http://www.w3.org/2000/svg">
<rect width="20" height="20" rx="10" fill="#0CE466"/>
<path fill-rule="evenodd" clip-rule="evenodd" d="M6.78145 4.15723L2.06152 8.8804L10.0001 16.8151L17.9379 8.8804L13.2179 4.15723H6.78145ZM6.35251 7.16077C8.35783 5.14653 11.6416 5.14651 13.6469 7.16076L15.3634 8.87711L13.6469 10.5934C11.6416 12.6077 8.35783 12.6077 6.35251 10.5934L4.63596 8.87711L6.35251 7.16077ZM10.0004 11.3443C8.63849 11.3443 7.53319 10.2402 7.53319 8.87708C7.53319 7.51392 8.63849 6.40987 10.0004 6.40987C11.3623 6.40987 12.4676 7.51392 12.4676 8.87708C12.4676 10.2402 11.3623 11.3443 10.0004 11.3443ZM10.0004 9.94975C9.40829 9.94975 8.92726 9.46972 8.92726 8.87708C8.92726 8.2844 9.40829 7.80438 10.0004 7.80438C10.5925 7.80438 11.0728 8.2844 11.0728 8.87708C11.0728 9.46979 10.5925 9.94975 10.0004 9.94975Z" fill="#00000F"/>
</svg>
