<svg width="34" height="31" viewBox="0 0 34 31" fill="none" xmlns="http://www.w3.org/2000/svg">
<path d="M31.5147 0.601074L18.9258 9.91341L21.273 4.42373L31.5147 0.601074Z" fill="#E17726" stroke="#E17726" stroke-width="0.248051" stroke-linecap="round" stroke-linejoin="round"/>
<path d="M2.48307 0.601074L14.957 9.99006L12.7247 4.43331L2.48307 0.601074ZM26.9806 22.1862L23.6274 27.3022L30.8033 29.2758L32.8535 22.3011L26.9806 22.1862ZM1.15137 22.3011L3.19203 29.2758L10.3487 27.3022L7.01469 22.1862L1.15137 22.3011Z" fill="#E27625" stroke="#E27625" stroke-width="0.248051" stroke-linecap="round" stroke-linejoin="round"/>
<path d="M9.96835 13.5469L7.97559 16.5552L15.0652 16.881L14.8353 9.24522L9.96835 13.5565V13.5469ZM24.0327 13.5565L19.0891 9.14941L18.9262 16.881L26.0158 16.5552L24.0327 13.5565ZM10.3516 27.3046L14.6533 25.2352L10.9552 22.3611L10.3516 27.3046ZM19.3573 25.2257L23.6303 27.3046L23.0554 22.3515L19.3573 25.2257Z" fill="#E27625" stroke="#E27625" stroke-width="0.248051" stroke-linecap="round" stroke-linejoin="round"/>
<path d="M23.6317 27.3021L19.3588 25.2327L19.7037 28.011L19.6654 29.1895L23.6317 27.3021ZM10.353 27.3021L14.3386 29.1895L14.3098 28.011L14.6547 25.2327L10.353 27.3021Z" fill="#D5BFB2" stroke="#D5BFB2" stroke-width="0.248051" stroke-linecap="round" stroke-linejoin="round"/>
<path d="M14.3988 20.5091L10.854 19.4744L13.3641 18.3248L14.4084 20.5091H14.3988ZM19.5819 20.5091L20.6358 18.3152L23.1555 19.4649L19.5819 20.5187V20.5091Z" fill="#233447" stroke="#233447" stroke-width="0.248051" stroke-linecap="round" stroke-linejoin="round"/>
<path d="M10.3502 27.3029L10.9729 22.1869L7.01611 22.3018L10.3502 27.3029ZM23.0253 22.1869L23.6289 27.3029L26.9821 22.3018L23.0253 22.1869ZM26.024 16.5535L18.9344 16.8792L19.5859 20.5198L20.6397 18.3163L23.1594 19.466L26.024 16.5535ZM10.8579 19.4755L13.368 18.3259L14.4123 20.5103L15.0734 16.8696L7.98375 16.5535L10.8579 19.4755Z" fill="#CC6228" stroke="#CC6228" stroke-width="0.248051" stroke-linecap="round" stroke-linejoin="round"/>
<path d="M7.98193 16.5535L10.9519 22.3497L10.8561 19.4755L7.98193 16.5535ZM23.1576 19.4755L23.0426 22.3497L26.0126 16.5535L23.1576 19.4755ZM15.0716 16.8792L14.4009 20.5198L15.244 24.8119L15.4356 19.1498L15.0716 16.8792ZM18.923 16.8792L18.5781 19.1402L18.7505 24.8119L19.584 20.5103L18.923 16.8696V16.8792Z" fill="#E27525" stroke="#E27525" stroke-width="0.248051" stroke-linecap="round" stroke-linejoin="round"/>
<path d="M19.5852 20.5091L18.7516 24.8108L19.3552 25.2323L23.0438 22.3581L23.1587 19.4744L19.5852 20.5091ZM10.8572 19.4744L10.953 22.3485L14.6512 25.2227L15.2451 24.8108L14.4116 20.5091L10.8477 19.4744H10.8572Z" fill="#F5841F" stroke="#F5841F" stroke-width="0.248051" stroke-linecap="round" stroke-linejoin="round"/>
<path d="M19.6749 29.1913L19.7037 28.0129L19.3779 27.7447H14.626L14.3098 28.0129L14.3386 29.1913L10.353 27.304L11.7518 28.4536L14.5781 30.3985H19.4163L22.2521 28.444L23.6317 27.304L19.6654 29.1913H19.6749Z" fill="#C0AC9D" stroke="#C0AC9D" stroke-width="0.248051" stroke-linecap="round" stroke-linejoin="round"/>
<path d="M19.3576 25.224L18.754 24.812H15.2475L14.6535 25.2336L14.3086 28.0119L14.6248 27.7437H19.3767L19.7025 28.0119L19.3576 25.2336V25.224Z" fill="#161616" stroke="#161616" stroke-width="0.248051" stroke-linecap="round" stroke-linejoin="round"/>
<path d="M32.0487 10.517L33.1025 5.39137L31.5122 0.601074L19.3448 9.60683L24.0297 13.5445L30.6403 15.4702L32.0966 13.7744L31.4643 13.3145L32.4702 12.3948L31.7038 11.8008L32.7097 11.0343L32.0391 10.517H32.0487ZM0.892578 5.38179L1.9656 10.517L1.2758 11.0248L2.30093 11.7912L1.53448 12.3948L2.53086 13.3145L1.89854 13.7744L3.35479 15.4702L9.9654 13.554L14.6503 9.59725L2.48296 0.601074L0.892578 5.38179Z" fill="#763E1A" stroke="#763E1A" stroke-width="0.248051" stroke-linecap="round" stroke-linejoin="round"/>
<path d="M30.6404 15.4705L24.0298 13.5544L26.0226 16.5531L23.0526 22.3494L26.9806 22.3015H32.8535L30.6404 15.4705ZM9.96551 13.5448L3.3549 15.4705L1.15137 22.3015H7.02427L10.9523 22.3494L7.98233 16.5531L9.97509 13.5448H9.96551ZM18.9234 16.8788L19.3545 9.59759L21.2706 4.42407H12.7247L14.6408 9.59759L15.072 16.8788L15.2348 19.159V24.8116H18.7509L18.7701 19.159L18.9234 16.8788Z" fill="#F5841F" stroke="#F5841F" stroke-width="0.248051" stroke-linecap="round" stroke-linejoin="round"/>
</svg>
