<svg width="32" height="33" viewBox="0 0 32 33" fill="none" xmlns="http://www.w3.org/2000/svg">
<path fill-rule="evenodd" clip-rule="evenodd" d="M4 8.5C4 6.84315 5.34315 5.5 7 5.5H23C24.6569 5.5 26 6.84315 26 8.5V10.6707C27.1652 11.0825 28 12.1938 28 13.5V19.5C28 20.8062 27.1652 21.9175 26 22.3293V24.5C26 26.1569 24.6569 27.5 23 27.5H7C5.34315 27.5 4 26.1569 4 24.5V8.5ZM24 8.5V10.5H18C16.3431 10.5 15 11.8431 15 13.5V19.5C15 21.1569 16.3431 22.5 18 22.5H24V24.5C24 25.0523 23.5523 25.5 23 25.5H7C6.44772 25.5 6 25.0523 6 24.5V8.5C6 7.94772 6.44772 7.5 7 7.5H23C23.5523 7.5 24 7.94772 24 8.5ZM18 20.5H25C25.5523 20.5 26 20.0523 26 19.5V13.5C26 12.9477 25.5523 12.5 25 12.5H18C17.4477 12.5 17 12.9477 17 13.5V19.5C17 20.0523 17.4477 20.5 18 20.5ZM20.75 18.25C21.7165 18.25 22.5 17.4665 22.5 16.5C22.5 15.5335 21.7165 14.75 20.75 14.75C19.7835 14.75 19 15.5335 19 16.5C19 17.4665 19.7835 18.25 20.75 18.25Z" fill="#00000F"/>
</svg>
