<svg width="21" height="21" viewBox="0 0 21 21" fill="none" xmlns="http://www.w3.org/2000/svg">
<g clip-path="url(#clip0_337_10378)">
<path d="M20.875 10.3535C20.875 15.8761 16.3975 20.3535 10.875 20.3535C5.35246 20.3535 0.875 15.8761 0.875 10.3535C0.875 4.83098 5.35246 0.353516 10.875 0.353516C16.3987 0.353516 20.875 4.83098 20.875 10.3535Z" fill="#2081E2"/>
<path d="M5.80872 10.6903L5.85186 10.6225L8.45326 6.55291C8.49128 6.49333 8.58066 6.49949 8.60942 6.56421C9.04402 7.53819 9.41902 8.74951 9.24334 9.50363C9.16834 9.81391 8.96286 10.2341 8.73168 10.6225C8.7019 10.679 8.66902 10.7345 8.63408 10.7879C8.61764 10.8126 8.5899 10.8269 8.5601 10.8269H5.88474C5.81282 10.8269 5.7707 10.7489 5.80872 10.6903Z" fill="white"/>
<path d="M17.4041 11.4457V12.0899C17.4041 12.1269 17.3815 12.1598 17.3486 12.1741C17.1472 12.2604 16.4578 12.5769 16.1712 12.9755C15.4397 13.9937 14.8808 15.4495 13.6314 15.4495H8.4194C6.57214 15.4495 5.0752 13.9475 5.0752 12.094V12.0344C5.0752 11.9851 5.11526 11.945 5.16458 11.945H8.0701C8.12762 11.945 8.16974 11.9985 8.16462 12.055C8.14406 12.244 8.179 12.4372 8.26838 12.6128C8.44098 12.9632 8.79852 13.182 9.18482 13.182H10.6232V12.0591H9.20126C9.12831 12.0591 9.08518 11.9748 9.1273 11.9152C9.1427 11.8916 9.16018 11.867 9.17866 11.8392C9.31326 11.6481 9.50538 11.3512 9.69648 11.0132C9.82696 10.7851 9.95332 10.5416 10.055 10.2971C10.0756 10.2529 10.092 10.2077 10.1085 10.1635C10.1362 10.0854 10.165 10.0125 10.1855 9.93954C10.2061 9.87788 10.2225 9.81316 10.2389 9.75254C10.2872 9.545 10.3078 9.32514 10.3078 9.09706C10.3078 9.00768 10.3037 8.91418 10.2955 8.8248C10.2913 8.7272 10.279 8.62958 10.2667 8.53198C10.2585 8.44568 10.2431 8.3604 10.2266 8.27102C10.2061 8.14054 10.1773 8.0111 10.1444 7.8806L10.1331 7.8313C10.1085 7.7419 10.0879 7.65664 10.0592 7.56726C9.97798 7.28676 9.8845 7.01348 9.78586 6.75766C9.7499 6.65594 9.7088 6.55834 9.6677 6.46074C9.6071 6.31382 9.54543 6.18026 9.48893 6.05388C9.46018 5.99634 9.43552 5.94394 9.41086 5.89052C9.38312 5.8299 9.35436 5.76928 9.32558 5.71176C9.30504 5.66758 9.2814 5.62648 9.26496 5.58538L9.08928 5.26072C9.06462 5.21654 9.10572 5.16414 9.154 5.1775L10.2533 5.47544H10.2564C10.2585 5.47544 10.2595 5.47648 10.2605 5.47648L10.4054 5.51654L10.5646 5.56176L10.6232 5.57818V4.92476C10.6232 4.60934 10.8759 4.35352 11.1883 4.35352C11.3444 4.35352 11.4862 4.41722 11.5879 4.52098C11.6896 4.62476 11.7533 4.76654 11.7533 4.92476V5.89464L11.8705 5.9275C11.8797 5.9306 11.889 5.9347 11.8972 5.94086C11.926 5.96244 11.967 5.99428 12.0194 6.03334C12.0605 6.0662 12.1047 6.10628 12.1581 6.14738C12.264 6.23264 12.3903 6.34258 12.529 6.46896C12.566 6.5008 12.602 6.53368 12.6349 6.56656C12.8136 6.733 13.014 6.9282 13.2051 7.14396C13.2585 7.20458 13.3109 7.26622 13.3643 7.33094C13.4177 7.3967 13.4743 7.46142 13.5236 7.52616C13.5883 7.61246 13.6582 7.70184 13.7188 7.79534C13.7475 7.83952 13.7804 7.88472 13.8082 7.9289C13.8862 8.04704 13.9551 8.16932 14.0208 8.29158C14.0486 8.34808 14.0773 8.40972 14.102 8.47034C14.1749 8.6337 14.2325 8.80014 14.2695 8.96658C14.2808 9.00254 14.289 9.04158 14.2931 9.07652V9.08474C14.3054 9.13404 14.3095 9.18644 14.3136 9.23986C14.3301 9.41042 14.3219 9.58096 14.2849 9.75254C14.2695 9.8255 14.2489 9.89432 14.2243 9.96728C14.1996 10.0371 14.1749 10.1101 14.1431 10.1789C14.0815 10.3217 14.0085 10.4645 13.9222 10.5981C13.8945 10.6474 13.8616 10.6998 13.8287 10.7491C13.7927 10.8015 13.7558 10.8508 13.7229 10.8991C13.6777 10.9608 13.6294 11.0255 13.5801 11.083C13.5359 11.1437 13.4907 11.2043 13.4414 11.2577C13.3725 11.3389 13.3068 11.4159 13.2379 11.4899C13.1969 11.5382 13.1527 11.5875 13.1075 11.6317C13.0633 11.681 13.0181 11.7252 12.977 11.7663C12.9082 11.8351 12.8506 11.8885 12.8023 11.9327L12.6893 12.0365C12.6729 12.0509 12.6513 12.0591 12.6287 12.0591H11.7533V13.182H12.8547C13.1013 13.182 13.3356 13.0947 13.5246 12.9344C13.5893 12.8779 13.8719 12.6334 14.2058 12.2646C14.2171 12.2522 14.2315 12.243 14.2479 12.2389L17.29 11.3594C17.3466 11.343 17.4041 11.3861 17.4041 11.4457Z" fill="white"/>
</g>
<defs>
<clipPath id="clip0_337_10378">
<rect width="20" height="20" fill="white" transform="translate(0.875 0.353516)"/>
</clipPath>
</defs>
</svg>
