<svg width="16" height="17" viewBox="0 0 16 17" fill="none" xmlns="http://www.w3.org/2000/svg">
<path d="M7.65244 2.46144C7.84627 2.27392 8.1539 2.27392 8.34773 2.46144L9.40041 3.4798C9.51125 3.58703 9.66538 3.6371 9.81808 3.61551L11.2683 3.41038C11.5353 3.37261 11.7842 3.55343 11.8308 3.81907L12.0838 5.26168C12.1105 5.41358 12.2057 5.54469 12.342 5.61697L13.6358 6.30344C13.874 6.42984 13.9691 6.72241 13.8506 6.9647L13.2074 8.28054C13.1397 8.4191 13.1397 8.58115 13.2074 8.71971L13.8506 10.0355C13.9691 10.2778 13.874 10.5704 13.6358 10.6968L12.342 11.3833C12.2057 11.4556 12.1105 11.5867 12.0838 11.7386L11.8308 13.1812C11.7842 13.4468 11.5353 13.6276 11.2683 13.5899L9.81808 13.3847C9.66538 13.3631 9.51125 13.4132 9.40041 13.5205L8.34773 14.5388C8.1539 14.7263 7.84627 14.7263 7.65244 14.5388L6.59977 13.5205C6.48892 13.4132 6.3348 13.3631 6.18209 13.3847L4.73189 13.5899C4.46485 13.6276 4.21598 13.4468 4.16938 13.1812L3.91633 11.7386C3.88968 11.5867 3.79443 11.4556 3.65819 11.3833L2.36438 10.6968C2.12615 10.5704 2.03109 10.2778 2.14953 10.0355L2.79275 8.71971C2.86048 8.58115 2.86048 8.4191 2.79275 8.28054L2.14953 6.9647C2.03109 6.72241 2.12615 6.42984 2.36438 6.30344L3.65819 5.61697C3.79443 5.54469 3.88968 5.41358 3.91633 5.26168L4.16938 3.81907C4.21598 3.55343 4.46485 3.37261 4.73189 3.41038L6.18209 3.61551C6.3348 3.6371 6.48892 3.58703 6.59977 3.4798L7.65244 2.46144Z" fill="#0000FF"/>
<path fill-rule="evenodd" clip-rule="evenodd" d="M10.2684 6.59666C10.1708 6.49903 10.0125 6.49903 9.9149 6.59666L6.89874 9.61281L5.8104 8.52447C5.71277 8.42684 5.55448 8.42684 5.45684 8.52447L5.03514 8.94617C4.98825 8.99306 4.96191 9.05665 4.96191 9.12295C4.96191 9.18926 4.98825 9.25284 5.03514 9.29973L6.72197 10.9866C6.8196 11.0842 6.97789 11.0842 7.07552 10.9866L10.6902 7.37192C10.737 7.32504 10.7634 7.26145 10.7634 7.19515C10.7634 7.12884 10.737 7.06525 10.6902 7.01837L10.2684 6.59666Z" fill="white"/>
</svg>
