<svg width="20" height="20" viewBox="0 0 20 20" fill="none" xmlns="http://www.w3.org/2000/svg">
<path fill-rule="evenodd" clip-rule="evenodd" d="M3.13033 17.7079H16.8803C17.3375 17.7079 17.7087 17.3325 17.7087 16.8696V3.11958C17.7087 2.65891 17.3497 2.28125 16.8803 2.28125H3.13033C2.66527 2.28125 2.29199 2.65452 2.29199 3.11958V16.8796C2.29199 17.3368 2.66744 17.7079 3.13033 17.7079ZM3.95866 3.95792H16.042V16.0413H3.95866V3.95792ZM9.30032 9.89877L9.30023 9.8992C9.10424 10.8152 8.93532 11.5835 8.53389 12.1309C8.14751 12.6578 7.52624 13.0009 6.35761 13.0009C5.96803 13.0009 5.65204 13.3132 5.65204 13.698C5.65204 14.0828 5.96803 14.3952 6.35761 14.3952C8.0423 14.3952 9.03699 13.8088 9.65217 12.9672C10.2486 12.1513 10.4728 11.113 10.6632 10.231L10.6699 10.2001C10.8702 9.27539 11.0411 8.49902 11.4497 7.94536C11.8432 7.41213 12.4771 7.06448 13.6715 7.06448C14.0563 7.06448 14.3687 6.74848 14.3687 6.3589C14.3687 5.97118 14.0666 5.65332 13.6715 5.65332C11.9661 5.65332 10.9588 6.24369 10.335 7.09365C9.7289 7.91961 9.5008 8.97296 9.30594 9.87283L9.30032 9.89877ZM5.97987 14.0641C5.8855 13.9696 5.82753 13.8401 5.82753 13.6982C5.82753 13.412 6.06319 13.1764 6.35776 13.1764C8.77291 13.1764 9.08459 11.746 9.47167 9.93687L9.47184 9.93603L9.47393 9.92639C9.86914 8.10165 10.3614 5.82881 13.6716 5.82881C13.8177 5.82881 13.9473 5.88678 14.0407 5.98115C13.9473 5.88669 13.8177 5.82866 13.6715 5.82866C10.3613 5.82866 9.86899 8.1015 9.47378 9.92624L9.47169 9.93588L9.47149 9.93683C9.08443 11.7459 8.77271 13.1762 6.35761 13.1762C6.06304 13.1762 5.82738 13.4119 5.82738 13.698C5.82738 13.84 5.88541 13.9696 5.97987 14.0641Z" fill="#00000F"/>
</svg>
