<svg width="20" height="21" viewBox="0 0 20 21" fill="none" xmlns="http://www.w3.org/2000/svg">
<path fill-rule="evenodd" clip-rule="evenodd" d="M10.0003 3.4821C6.31843 3.4821 3.33366 6.46686 3.33366 10.1488C3.33366 13.8307 6.31843 16.8154 10.0003 16.8154C13.6822 16.8154 16.667 13.8307 16.667 10.1488C16.667 6.46686 13.6822 3.4821 10.0003 3.4821ZM1.66699 10.1488C1.66699 5.54639 5.39795 1.81543 10.0003 1.81543C14.6027 1.81543 18.3337 5.54639 18.3337 10.1488C18.3337 14.7511 14.6027 18.4821 10.0003 18.4821C5.39795 18.4821 1.66699 14.7511 1.66699 10.1488ZM10.8337 9.31543V6.81543H9.16699V9.31543H6.66742L6.66702 10.9821H9.16699V13.4821H10.8337V10.9821H13.3332L13.3336 9.31543H10.8337Z" fill="#EBEBFF"/>
</svg>
